# Blender 4.0.2
# www.blender.org
o coffin_01
v -0.229184 0.000000 -0.508828
v -0.229184 0.015212 -0.508828
v -0.229184 0.000000 -0.643273
v -0.229184 0.015212 -0.643273
v 0.229184 0.000000 -0.508828
v 0.229184 0.015212 -0.508828
v 0.229184 0.000000 -0.643273
v 0.229184 0.015212 -0.643273
v -0.174672 0.000000 0.714873
v -0.174672 0.015212 0.714873
v -0.174672 0.000000 0.601006
v -0.174672 0.015212 0.601006
v 0.174672 0.000000 0.714873
v 0.174672 0.015212 0.714873
v 0.174672 0.000000 0.601006
v 0.174672 0.015212 0.601006
v -0.166888 0.015212 1.050583
v -0.146888 0.412206 1.026939
v -0.123494 0.015212 -1.053467
v -0.109221 0.412206 -1.029822
v 0.166888 0.015212 1.050584
v 0.146888 0.412206 1.026939
v 0.123494 0.015212 -1.053467
v 0.109221 0.412206 -1.029822
v -0.361048 0.015212 -0.539218
v -0.337677 0.412206 -0.535267
v 0.361048 0.015212 -0.539218
v 0.337677 0.412206 -0.535267
v -0.361048 0.412206 -0.539218
v -0.123494 0.412206 -1.053467
v 0.123494 0.412206 -1.053467
v 0.361048 0.412206 -0.539218
v 0.166888 0.412206 1.050584
v -0.166888 0.412206 1.050584
v -0.337677 0.044390 -0.535267
v 0.337677 0.044390 -0.535267
v -0.109221 0.044390 -1.029822
v 0.109221 0.044390 -1.029822
v 0.146888 0.044390 1.026939
v -0.146888 0.044390 1.026939
v 0.092182 0.044390 1.026939
v 0.092182 0.410495 1.026939
v 0.092182 0.044390 0.994197
v 0.092182 0.410495 0.994197
v 0.146888 0.044390 1.026939
v 0.146888 0.410495 1.026939
v 0.150858 0.044390 0.994197
v 0.150858 0.410495 0.994197
v 0.056715 0.044390 -0.997080
v 0.056715 0.410495 -0.997080
v 0.056715 0.044390 -1.029822
v 0.056715 0.410495 -1.029822
v 0.124274 0.044390 -0.997080
v 0.124274 0.410495 -0.997080
v 0.109221 0.044390 -1.029822
v 0.109221 0.410495 -1.029822
v 0.300740 0.044390 -0.576413
v 0.300740 0.410495 -0.576412
v 0.318628 0.044390 -0.576412
v 0.318628 0.410495 -0.576412
v 0.300740 0.044390 -0.501992
v 0.300740 0.410495 -0.501992
v 0.333580 0.044390 -0.501992
v 0.333580 0.410495 -0.501992
v 0.337649 0.044390 -0.535267
v 0.337649 0.410495 -0.535267
v 0.300740 0.044390 -0.535267
v 0.300740 0.410495 -0.535267
v 0.253230 0.044390 0.155514
v 0.253230 0.410495 0.155514
v 0.222039 0.044390 0.151382
v 0.222039 0.410495 0.151382
v 0.259646 0.044390 0.102990
v 0.259646 0.410495 0.102990
v 0.228456 0.044390 0.098858
v 0.228456 0.410495 0.098858
v -0.092182 0.044390 1.026939
v -0.092182 0.410495 1.026939
v -0.092182 0.044390 0.994197
v -0.092182 0.410495 0.994197
v -0.146888 0.044390 1.026939
v -0.146888 0.410495 1.026939
v -0.150858 0.044390 0.994197
v -0.150858 0.410495 0.994197
v -0.056715 0.044390 -0.997080
v -0.056715 0.410495 -0.997080
v -0.056715 0.044390 -1.029823
v -0.056715 0.410495 -1.029823
v -0.124274 0.044390 -0.997080
v -0.124274 0.410495 -0.997080
v -0.109221 0.044390 -1.029822
v -0.109221 0.410495 -1.029822
v -0.300740 0.044390 -0.576412
v -0.300740 0.410495 -0.576412
v -0.318628 0.044390 -0.576412
v -0.318628 0.410495 -0.576412
v -0.300740 0.044390 -0.501992
v -0.300740 0.410495 -0.501992
v -0.333580 0.044390 -0.501992
v -0.333580 0.410495 -0.501992
v -0.337649 0.044390 -0.535267
v -0.337648 0.410495 -0.535267
v -0.300740 0.044390 -0.535267
v -0.300740 0.410495 -0.535267
v -0.253230 0.044390 0.155514
v -0.253230 0.410495 0.155514
v -0.222039 0.044390 0.151382
v -0.222039 0.410495 0.151382
v -0.259646 0.044390 0.102990
v -0.259646 0.410495 0.102990
v -0.228456 0.044390 0.098858
v -0.228456 0.410495 0.098858
vn -1.0000 -0.0000 -0.0000
vn -0.0000 -0.0000 -1.0000
vn 1.0000 -0.0000 -0.0000
vn -0.0000 -0.0000 1.0000
vn -0.0000 -1.0000 -0.0000
vn -0.0000 1.0000 -0.0000
vn -0.9078 -0.0000 -0.4194
vn 0.9926 -0.0000 0.1212
vn -0.9078 -0.0000 0.4194
vn 0.9078 -0.0000 -0.4194
vn -0.9926 -0.0000 0.1212
vn 0.9926 -0.0000 -0.1212
vn -0.9926 -0.0000 -0.1212
vn 0.9078 -0.0000 0.4194
vn 0.9927 -0.0000 0.1204
vn 0.9086 -0.0000 -0.4177
vn 0.9926 -0.0000 0.1214
vn 0.9077 -0.0000 -0.4196
vn -0.1313 -0.0000 0.9913
vn -0.9926 -0.0000 -0.1213
vn 0.1313 -0.0000 -0.9913
vn 0.9926 -0.0000 0.1213
vn -0.9927 -0.0000 0.1204
vn -0.9086 -0.0000 -0.4177
vn -0.9926 -0.0000 0.1214
vn -0.9077 -0.0000 -0.4196
vn 0.1313 -0.0000 0.9913
vn 0.9926 -0.0000 -0.1213
vn -0.1313 -0.0000 -0.9913
vn -0.9926 -0.0000 0.1213
vt 0.050968 0.478331
vt 0.045957 0.478331
vt 0.045958 0.434043
vt 0.050968 0.434043
vt 0.050968 0.429032
vt 0.201960 0.429032
vt 0.201960 0.434043
vt 0.206971 0.434043
vt 0.206971 0.478331
vt 0.201960 0.478331
vt 0.201960 0.483342
vt 0.050968 0.483342
vt 0.881791 0.759171
vt 0.730811 0.759171
vt 0.730810 0.714887
vt 0.881791 0.714887
vt 0.900355 0.891572
vt 0.900355 0.896583
vt 0.862845 0.896583
vt 0.862845 0.891572
vt 0.857835 0.891572
vt 0.857834 0.776493
vt 0.862845 0.776493
vt 0.862845 0.771482
vt 0.900354 0.771482
vt 0.900354 0.776493
vt 0.905366 0.776493
vt 0.905366 0.891572
vt 0.722515 0.179506
vt 0.607438 0.179506
vt 0.607438 0.141996
vt 0.722515 0.141996
vt 0.191487 0.710881
vt 0.191486 0.837936
vt 0.004881 0.837936
vt 0.004881 0.710881
vt 0.085004 0.212535
vt 0.085005 0.085489
vt 0.166361 0.085489
vt 0.166361 0.212535
vt 0.532483 0.850881
vt 0.532483 0.977937
vt 0.004879 0.977934
vt 0.004879 0.850879
vt 0.721866 0.005655
vt 0.721865 0.132711
vt 0.611914 0.132710
vt 0.611914 0.005655
vt 0.211444 0.174281
vt 0.449312 0.174281
vt 0.385353 0.697982
vt 0.275403 0.697982
vt 0.078361 0.221180
vt 0.175138 0.221180
vt 0.175138 0.338627
vt 0.078361 0.338627
vt 0.730818 0.184340
vt 0.730818 0.004886
vt 0.848259 0.004886
vt 0.848259 0.184340
vt 0.289697 0.004881
vt 0.371059 0.004881
vt 0.719088 0.850881
vt 0.719088 0.977937
vt 0.719092 0.710881
vt 0.719092 0.837937
vt 0.012741 0.527284
vt 0.087998 0.690197
vt 0.083296 0.697987
vt 0.005043 0.528585
vt 0.159955 0.690197
vt 0.164657 0.697986
vt 0.235212 0.527284
vt 0.172363 0.012672
vt 0.178951 0.004883
vt 0.242910 0.528585
vt 0.075590 0.012672
vt 0.069001 0.004884
vt 0.641435 0.534258
vt 0.418963 0.534258
vt 0.481812 0.019643
vt 0.578586 0.019644
vt 0.566177 0.697171
vt 0.494219 0.697171
vt 0.066797 0.420678
vt 0.066797 0.348720
vt 0.184239 0.348720
vt 0.184238 0.420677
vt 0.977418 0.184337
vt 0.977418 0.702777
vt 0.859976 0.702776
vt 0.859976 0.184337
vt 0.730818 0.702770
vt 0.848258 0.702770
vt 0.977418 0.004881
vt 0.859976 0.004881
vt 0.181716 0.551725
vt 0.064835 0.551725
vt 0.064835 0.540940
vt 0.181716 0.540940
vt 0.064835 0.521611
vt 0.181716 0.521611
vt 0.064835 0.510745
vt 0.181716 0.510746
vt 0.064835 0.492725
vt 0.181716 0.492726
vt 0.617003 0.647660
vt 0.617003 0.628333
vt 0.627788 0.629641
vt 0.627787 0.647660
vt 0.410120 0.587774
vt 0.429447 0.587774
vt 0.429447 0.598559
vt 0.411428 0.598559
vt 0.847693 0.781669
vt 0.730806 0.781669
vt 0.730806 0.770883
vt 0.847693 0.770883
vt 0.847685 0.846050
vt 0.730807 0.846050
vt 0.730807 0.828755
vt 0.847685 0.828755
vt 0.730807 0.816883
vt 0.847685 0.816883
vt 0.847693 0.803925
vt 0.730806 0.803925
vt 0.213303 0.631521
vt 0.230596 0.631521
vt 0.235554 0.642305
vt 0.213303 0.642305
vt 0.228096 0.665555
vt 0.210800 0.665555
vt 0.210800 0.654768
vt 0.233055 0.654768
vt 0.683277 0.307494
vt 0.683276 0.190615
vt 0.689169 0.190615
vt 0.689169 0.307494
vt 0.704101 0.307494
vt 0.704101 0.190615
vt 0.715144 0.190615
vt 0.715144 0.307494
vt 0.647943 0.307494
vt 0.647943 0.190615
vt 0.658761 0.190615
vt 0.658761 0.307494
vt 0.669724 0.307494
vt 0.669723 0.190615
vt 0.650690 0.605185
vt 0.649350 0.616144
vt 0.638534 0.616144
vt 0.638534 0.605185
vt 0.623931 0.670450
vt 0.610373 0.664183
vt 0.610373 0.658288
vt 0.623931 0.658288
vt 0.634896 0.669109
vt 0.634896 0.658288
vt 0.644426 0.591633
vt 0.638534 0.591633
vt 0.182470 0.599186
vt 0.065593 0.599187
vt 0.065593 0.588822
vt 0.182470 0.588822
vt 0.065593 0.571392
vt 0.182470 0.571391
vt 0.065593 0.561027
vt 0.182470 0.561027
vt 0.182470 0.616618
vt 0.065593 0.616618
vt 0.639175 0.647946
vt 0.639175 0.630520
vt 0.649536 0.630625
vt 0.649536 0.648050
vt 0.446078 0.641617
vt 0.446078 0.659050
vt 0.435713 0.659155
vt 0.435713 0.641722
vt 0.656242 0.451387
vt 0.667027 0.451387
vt 0.667027 0.568263
vt 0.656242 0.568263
vt 0.686355 0.451387
vt 0.686355 0.568263
vt 0.697219 0.451387
vt 0.697220 0.568263
vt 0.715240 0.451387
vt 0.715240 0.568263
vt 0.410420 0.621767
vt 0.410420 0.610983
vt 0.428439 0.610983
vt 0.429747 0.621768
vt 0.429246 0.631882
vt 0.427938 0.642669
vt 0.409917 0.642668
vt 0.409917 0.631882
vt 0.732340 0.909969
vt 0.732340 0.899184
vt 0.849213 0.899184
vt 0.849213 0.909969
vt 0.731576 0.886423
vt 0.731576 0.869127
vt 0.848453 0.869127
vt 0.848453 0.886423
vt 0.731576 0.857256
vt 0.848453 0.857256
vt 0.732340 0.932223
vt 0.849213 0.932223
vt 0.609406 0.693109
vt 0.609407 0.682323
vt 0.631663 0.682323
vt 0.626704 0.693109
vt 0.432051 0.674289
vt 0.442837 0.669330
vt 0.442837 0.691585
vt 0.432051 0.691585
vt 0.684430 0.319067
vt 0.690324 0.319067
vt 0.690324 0.435946
vt 0.684431 0.435946
vt 0.705255 0.319067
vt 0.716298 0.319067
vt 0.716298 0.435946
vt 0.705256 0.435946
vt 0.649098 0.319067
vt 0.659915 0.319067
vt 0.659915 0.435946
vt 0.649098 0.435946
vt 0.670877 0.319067
vt 0.670877 0.435946
vt 0.257526 0.678558
vt 0.245367 0.678558
vt 0.245367 0.667596
vt 0.256186 0.667596
vt 0.218239 0.690601
vt 0.218239 0.678442
vt 0.231794 0.678443
vt 0.231794 0.684335
vt 0.207277 0.689261
vt 0.207277 0.678442
vt 0.251260 0.692112
vt 0.245367 0.692112
vt 0.677973 0.580099
vt 0.688338 0.580099
vt 0.688338 0.696982
vt 0.677973 0.696982
vt 0.705769 0.580099
vt 0.705769 0.696983
vt 0.716134 0.580099
vt 0.716134 0.696983
vt 0.660542 0.580099
vt 0.660542 0.696982
vt 0.424233 0.656763
vt 0.424339 0.667126
vt 0.406907 0.667126
vt 0.406803 0.656763
vt 0.422510 0.680761
vt 0.422406 0.691125
vt 0.404972 0.691126
vt 0.405077 0.680761
s 0
f 1/1/1 2/2/1 4/3/1 3/4/1
f 3/4/2 4/5/2 8/6/2 7/7/2
f 7/7/3 8/8/3 6/9/3 5/10/3
f 5/10/4 6/11/4 2/12/4 1/1/4
f 3/4/5 7/7/5 5/10/5 1/1/5
f 8/13/6 4/14/6 2/15/6 6/16/6
f 9/17/1 10/18/1 12/19/1 11/20/1
f 11/20/2 12/21/2 16/22/2 15/23/2
f 15/23/3 16/24/3 14/25/3 13/26/3
f 13/26/4 14/27/4 10/28/4 9/17/4
f 11/20/5 15/23/5 13/26/5 9/17/5
f 16/29/6 12/30/6 10/31/6 14/32/6
f 25/33/7 29/34/7 30/35/7 19/36/7
f 19/37/2 30/38/2 31/39/2 23/40/2
f 27/41/8 32/42/8 33/43/8 21/44/8
f 21/45/4 33/46/4 34/47/4 17/48/4
f 25/49/5 27/50/5 21/51/5 17/52/5
f 18/53/2 22/54/2 39/55/2 40/56/2
f 28/57/9 24/58/9 38/59/9 36/60/9
f 19/61/5 23/62/5 27/50/5 25/49/5
f 23/63/10 31/64/10 32/42/10 27/41/10
f 17/65/11 34/66/11 29/34/11 25/33/11
f 26/67/6 20/68/6 30/69/6 29/70/6
f 20/68/6 24/71/6 31/72/6 30/69/6
f 28/73/6 22/74/6 33/75/6 32/76/6
f 22/74/6 18/77/6 34/78/6 33/75/6
f 18/77/6 26/67/6 29/70/6 34/78/6
f 24/71/6 28/73/6 32/76/6 31/72/6
f 36/79/6 35/80/6 40/81/6 39/82/6
f 38/83/6 37/84/6 35/80/6 36/79/6
f 24/85/4 20/86/4 37/87/4 38/88/4
f 26/89/12 18/90/12 40/91/12 35/92/12
f 22/93/13 28/57/13 36/60/13 39/94/13
f 20/95/14 26/89/14 35/92/14 37/96/14
f 41/97/1 42/98/1 44/99/1 43/100/1
f 43/100/2 44/99/2 48/101/2 47/102/2
f 47/102/15 48/101/15 46/103/15 45/104/15
f 45/104/4 46/103/4 42/105/4 41/106/4
f 43/107/5 47/108/5 45/109/5 41/110/5
f 48/111/6 44/112/6 42/113/6 46/114/6
f 49/115/1 50/116/1 52/117/1 51/118/1
f 51/119/2 52/120/2 56/121/2 55/122/2
f 55/122/16 56/121/16 54/123/16 53/124/16
f 53/125/4 54/126/4 50/116/4 49/115/4
f 51/127/5 55/128/5 53/129/5 49/130/5
f 56/131/6 52/132/6 50/133/6 54/134/6
f 57/135/2 58/136/2 60/137/2 59/138/2
f 65/139/17 66/140/17 64/141/17 63/142/17
f 63/143/4 64/144/4 62/145/4 61/146/4
f 67/147/1 68/148/1 58/136/1 57/135/1
f 65/149/5 63/150/5 61/151/5 67/152/5
f 66/153/6 60/154/6 58/155/6 68/156/6
f 64/157/6 66/153/6 68/156/6 62/158/6
f 59/159/5 65/149/5 67/152/5 57/160/5
f 61/146/1 62/145/1 68/148/1 67/147/1
f 59/138/18 60/137/18 66/140/18 65/139/18
f 69/161/19 70/162/19 72/163/19 71/164/19
f 71/164/20 72/163/20 76/165/20 75/166/20
f 75/166/21 76/165/21 74/167/21 73/168/21
f 73/169/22 74/170/22 70/162/22 69/161/22
f 71/171/5 75/172/5 73/173/5 69/174/5
f 76/175/6 72/176/6 70/177/6 74/178/6
f 77/179/3 79/180/3 80/181/3 78/182/3
f 79/180/2 83/183/2 84/184/2 80/181/2
f 83/183/23 81/185/23 82/186/23 84/184/23
f 81/185/4 77/187/4 78/188/4 82/186/4
f 79/189/5 77/190/5 81/191/5 83/192/5
f 84/193/6 82/194/6 78/195/6 80/196/6
f 85/197/3 87/198/3 88/199/3 86/200/3
f 87/201/2 91/202/2 92/203/2 88/204/2
f 91/202/24 89/205/24 90/206/24 92/203/24
f 89/207/4 85/197/4 86/200/4 90/208/4
f 87/209/5 85/210/5 89/211/5 91/212/5
f 92/213/6 90/214/6 86/215/6 88/216/6
f 93/217/2 95/218/2 96/219/2 94/220/2
f 101/221/25 99/222/25 100/223/25 102/224/25
f 99/225/4 97/226/4 98/227/4 100/228/4
f 103/229/3 93/217/3 94/220/3 104/230/3
f 101/231/5 103/232/5 97/233/5 99/234/5
f 102/235/6 104/236/6 94/237/6 96/238/6
f 100/239/6 98/240/6 104/236/6 102/235/6
f 95/241/5 93/242/5 103/232/5 101/231/5
f 97/226/3 103/229/3 104/230/3 98/227/3
f 95/218/26 101/221/26 102/224/26 96/219/26
f 105/243/27 107/244/27 108/245/27 106/246/27
f 107/244/28 111/247/28 112/248/28 108/245/28
f 111/247/29 109/249/29 110/250/29 112/248/29
f 109/251/30 105/243/30 106/246/30 110/252/30
f 107/253/5 105/254/5 109/255/5 111/256/5
f 112/257/6 110/258/6 106/259/6 108/260/6
